<svg data-name="Layer 1" xmlns="http://www.w3.org/2000/svg" viewBox="0 0 561 70.73"><defs><style>.cls-1{fill:#2c7a7b;}</style></defs><title>logo_v1</title><path d="M1037,445q5.88,6.66,5.88,18.82t-5.88,18.8q-5.87,6.68-15.71,6.68t-15.67-6.68q-5.86-6.69-5.87-18.8t5.87-18.82q5.88-6.64,15.67-6.65T1037,445Zm-2.58,18.82q0-9.32-3.64-14a11.92,11.92,0,0,0-19,0q-3.64,4.71-3.64,14t3.64,14a11.93,11.93,0,0,0,19,0Q1034.44,473.12,1034.43,463.85Z" transform="translate(-481.33 -418.6)"/><path d="M995,481.71v6.56a28.93,28.93,0,0,1-5.85.55q-5,0-7.37-1.9a8,8,0,0,1-2.9-4.89,45.46,45.46,0,0,1-.57-8.13V446.27h-5.67v-6.79h5.67V427.36h8.15v12.12h7.46v6.79h-7.46v28.09q0,5,1.19,6.36a4.16,4.16,0,0,0,3.28,1.35A22.41,22.41,0,0,0,995,481.71Z" transform="translate(-481.33 -418.6)"/><path d="M970.55,438.75v8.62a17.65,17.65,0,0,0-5-.55q-6.24,0-10.7,6.93v34.43h-8.19v-48.7h8.19v6.79q5.16-7.89,12-7.89A20.2,20.2,0,0,1,970.55,438.75Z" transform="translate(-481.33 -418.6)"/><path d="M936.63,463.85v2.07H902q.53,8.44,4.4,12.53a12.67,12.67,0,0,0,9.56,4.08,13.48,13.48,0,0,0,7.73-2.32,7.86,7.86,0,0,0,3.62-6.58h8.46a16.37,16.37,0,0,1-6.44,11.61A21.78,21.78,0,0,1,916,489.33q-10.14,0-16.3-6.73t-6.15-18.75q0-11.93,6-18.7a19.77,19.77,0,0,1,15.59-6.77q9.84,0,15.71,6.65T936.63,463.85Zm-34.46-4.73H928q-1-7-4.47-10.51a12,12,0,0,0-16.9,0Q903.13,452.05,902.17,459.12Z" transform="translate(-481.33 -418.6)"/><path d="M881.43,445.15q5,6.77,5,18.29,0,12-5.53,18.93a17.08,17.08,0,0,1-13.94,7,17.44,17.44,0,0,1-12.57-4.92v3.77h-8.19V420.89h8.19v24.42q5.48-6.93,13.14-6.93Q876.5,438.38,881.43,445.15Zm-3.51,18.29q0-9-2.94-13.66a9.27,9.27,0,0,0-8.24-4.66q-6.81,0-12.4,8.36v23.13q5.25,5.92,12,5.92a9.6,9.6,0,0,0,8.41-4.79Q877.92,472.94,877.92,463.44Z" transform="translate(-481.33 -418.6)"/><rect x="343.69" y="2.29" width="8.2" height="67.29"/><path d="M812,456.69v31.49h-8.15v-5q-6.24,6.16-16.08,6.16a16.35,16.35,0,0,1-11.27-3.93,12.94,12.94,0,0,1-4.42-10.12q0-17.07,27.79-17.07h4a39,39,0,0,0-.52-7.6,6.21,6.21,0,0,0-2.9-3.92c-1.59-1-4.12-1.57-7.59-1.57q-10.92,0-11.26,8.27h-8.15q.9-15,19.85-15,8.83,0,13.78,3.72T812,456.69Zm-8.15,18.68V464.59H798.3q-17.76,0-17.77,10.23a6.81,6.81,0,0,0,2.6,5.72,11.28,11.28,0,0,0,7,2A16.92,16.92,0,0,0,798,480.6,15.09,15.09,0,0,0,803.89,475.37Z" transform="translate(-481.33 -418.6)"/><path class="cls-1" d="M762.78,459.4v28.78H749.13V462.06q0-10.92-7.37-10.92a7.14,7.14,0,0,0-5.85,2.89,11.46,11.46,0,0,0-2.3,7.34v26.81H719.92v-47h13.69v7.43h.18q4.89-8.58,14.26-8.58Q762.78,440,762.78,459.4Z" transform="translate(-481.33 -418.6)"/><path class="cls-1" d="M703.86,446.62q6.28,6.58,6.28,17.42,0,11.7-6.48,18.49t-17.75,6.8q-11.08,0-17.44-6.59t-6.35-17.88q0-11.66,6.59-18.24T686.52,440Q697.58,440,703.86,446.62Zm-17.51,31.6q9.84,0,9.84-13.91,0-13.17-9.93-13.17a8.94,8.94,0,0,0-7.54,3.53q-2.69,3.54-2.69,10Q676,478.21,686.35,478.22Z" transform="translate(-481.33 -418.6)"/><path class="cls-1" d="M657.72,441.18l-14.65,22.76,14.56,24.24H641.86l-6.42-12.67q-.78-1.51-1.86-4.27h-.18a30.12,30.12,0,0,1-1.77,4.13l-6.46,12.81H609.44l15-23.41-14.08-23.59h15.86l6.33,13.17a28.35,28.35,0,0,1,1.77,4.41h.18a31.63,31.63,0,0,1,1.86-4.5l6.46-13.08Z" transform="translate(-481.33 -418.6)"/><rect class="cls-1" x="107.41" y="22.58" width="13.7" height="47"/><path class="cls-1" d="M601.37,420.89a7,7,0,0,1,2.19,5.32,7.2,7.2,0,0,1-2.19,5.42,7.84,7.84,0,0,1-5.7,2.11,7.7,7.7,0,0,1-5.67-2.18,7.18,7.18,0,0,1-2.21-5.35,6.94,6.94,0,0,1,2.21-5.32,8.87,8.87,0,0,1,11.37,0Z" transform="translate(-481.33 -418.6)"/><path class="cls-1" d="M576.32,418.6v69.58H562.63v-6.47h-.18a15.14,15.14,0,0,1-13.74,7.62,16.44,16.44,0,0,1-13.39-6.22q-5.07-6.23-5.07-17.38,0-11.66,5.59-18.68a17.83,17.83,0,0,1,14.65-7q8.58,0,12,6.52h.18V418.6Zm-13.43,46.72v-3.53a11.51,11.51,0,0,0-2.52-7.62,8.58,8.58,0,0,0-13.65.75q-2.57,3.79-2.56,10.4,0,6.19,2.47,9.55a8.46,8.46,0,0,0,13.63-.19Q562.89,471.16,562.89,465.32Z" transform="translate(-481.33 -418.6)"/><path class="cls-1" d="M523.86,462.7v6.11h-29Q495.59,479,507.08,479A22.74,22.74,0,0,0,520,475.37v10.47q-6.15,3.48-16,3.49-10.75,0-16.69-6.32t-5.94-17.6q0-11.7,6.42-18.54A20.8,20.8,0,0,1,503.53,440q9.71,0,15,6.1T523.86,462.7Zm-29.05-2.8h16.35q0-10.09-7.72-10.09a7.2,7.2,0,0,0-5.7,2.89A13.58,13.58,0,0,0,494.81,459.9Z" transform="translate(-481.33 -418.6)"/></svg>