<svg id="Layer_1" data-name="Layer 1" xmlns="http://www.w3.org/2000/svg" viewBox="0 0 563 70.73"><defs><style>.cls-1{fill:#cbd5e0;}.cls-2{fill:#2c7a7b;}</style></defs><title>logo_v1_dark</title><path class="cls-1" d="M556.48,26.38q5.88,6.66,5.88,18.82T556.48,64q-5.88,6.68-15.72,6.68T525.09,64q-5.85-6.69-5.86-18.8t5.86-18.82q5.89-6.64,15.67-6.65T556.48,26.38ZM553.9,45.2q0-9.33-3.64-14a11.92,11.92,0,0,0-16.7-2.3,11.66,11.66,0,0,0-2.3,2.3q-3.64,4.71-3.64,14t3.64,14A11.92,11.92,0,0,0,548,61.48a12.06,12.06,0,0,0,2.29-2.28q3.65-4.71,3.65-14Z"/><path class="cls-1" d="M514.48,63.09v6.56a29.5,29.5,0,0,1-5.85.55c-3.34,0-5.79-.64-7.37-1.9a7.94,7.94,0,0,1-2.9-4.89,45.2,45.2,0,0,1-.58-8.13V27.65h-5.66V20.86h5.66V8.74h8.16V20.86h7.46v6.79h-7.46V55.74c0,3.33.39,5.45,1.19,6.36a4.18,4.18,0,0,0,3.28,1.35A23.24,23.24,0,0,0,514.48,63.09Z"/><path class="cls-1" d="M490,20.13v8.62a17.53,17.53,0,0,0-5-.55q-6.24,0-10.7,6.93V69.56h-8.19V20.86h8.19v6.79q5.16-7.89,12-7.89A19.84,19.84,0,0,1,490,20.13Z"/><path class="cls-1" d="M456.11,45.23V47.3H421.48q.52,8.43,4.4,12.53a12.67,12.67,0,0,0,9.56,4.08,13.56,13.56,0,0,0,7.73-2.32A7.86,7.86,0,0,0,446.78,55h8.47a16.42,16.42,0,0,1-6.44,11.61,21.87,21.87,0,0,1-13.33,4.09q-10.16,0-16.3-6.73T413,45.23q0-11.94,6-18.7a19.77,19.77,0,0,1,15.6-6.77q9.84,0,15.71,6.65T456.11,45.23ZM421.64,40.5h25.84q-1-7-4.47-10.51a12,12,0,0,0-16.9,0Q422.6,33.43,421.64,40.5Z"/><path class="cls-1" d="M400.9,26.53q5,6.77,5,18.29,0,12-5.53,18.93a17.06,17.06,0,0,1-13.94,7,17.46,17.46,0,0,1-12.57-4.92V69.6h-8.19V2.27h8.19V26.69q5.49-6.93,13.14-6.93Q396,19.76,400.9,26.53Zm-3.51,18.29q0-9-2.94-13.66a9.25,9.25,0,0,0-8.24-4.66q-6.79,0-12.4,8.36V58q5.26,5.91,12,5.92a9.61,9.61,0,0,0,8.41-4.79Q397.4,54.32,397.39,44.82Z"/><rect class="cls-1" x="344.49" y="2.27" width="8.2" height="67.29"/><path class="cls-1" d="M331.48,38.07V69.56h-8.16v-5q-6.24,6.15-16.08,6.16A16.42,16.42,0,0,1,296,66.79a13,13,0,0,1-4.42-10.12q0-17.07,27.79-17.07h4a37.91,37.91,0,0,0-.52-7.6,6.15,6.15,0,0,0-2.9-3.92c-1.59-1-4.12-1.57-7.59-1.57q-10.92,0-11.26,8.27h-8.15q.9-15,19.85-15,8.84,0,13.78,3.72T331.48,38.07Zm-8.16,18.68V46h-5.55Q300,46,300,56.2a6.86,6.86,0,0,0,2.6,5.72,11.33,11.33,0,0,0,7,2A17,17,0,0,0,317.48,62a15.16,15.16,0,0,0,5.89-5.23Z"/><path class="cls-2" d="M282.26,40.78V69.56H268.61V43.44q0-10.92-7.37-10.92a7.12,7.12,0,0,0-5.85,2.89,11.41,11.41,0,0,0-2.3,7.34V69.56h-13.7v-47h13.69V30h.18q4.89-8.58,14.26-8.58Q282.27,21.38,282.26,40.78Z"/><path class="cls-2" d="M223.33,28q6.28,6.57,6.29,17.42,0,11.7-6.48,18.49t-17.75,6.8q-11.08,0-17.44-6.59T181.6,46.24q0-11.67,6.59-18.24T206,21.38Q217.06,21.38,223.33,28ZM205.82,59.6q9.84,0,9.85-13.91,0-13.17-9.93-13.17a8.9,8.9,0,0,0-7.54,3.53q-2.7,3.54-2.69,10Q195.48,59.58,205.82,59.6Z"/><path class="cls-2" d="M177.19,22.56,162.54,45.32,177.1,69.56H161.33l-6.41-12.67a42.69,42.69,0,0,1-1.86-4.27h-.18a30.73,30.73,0,0,1-1.77,4.13l-6.47,12.81H128.92l15-23.41L129.83,22.56h15.86L152,35.73a28,28,0,0,1,1.78,4.41H154a31.52,31.52,0,0,1,1.85-4.5l6.47-13.08Z"/><rect class="cls-2" x="108.21" y="22.56" width="13.7" height="47"/><path class="cls-2" d="M120.84,2.27A7,7,0,0,1,123,7.59,7.19,7.19,0,0,1,120.84,13a7.83,7.83,0,0,1-5.7,2.11,7.7,7.7,0,0,1-5.66-2.18,7.21,7.21,0,0,1-2.22-5.35,7,7,0,0,1,2.22-5.32A8.85,8.85,0,0,1,120.84,2.27Z"/><path class="cls-2" d="M95.8,0V69.56H82.11V63.09h-.18a15.16,15.16,0,0,1-13.74,7.62A16.43,16.43,0,0,1,54.8,64.49q-5.07-6.24-5.07-17.38,0-11.67,5.59-18.68a17.8,17.8,0,0,1,14.65-7q8.58,0,12,6.52h.18V0ZM82.37,46.7V43.17a11.5,11.5,0,0,0-2.53-7.62,8.57,8.57,0,0,0-12.09-1,8.91,8.91,0,0,0-1.56,1.74q-2.56,3.78-2.56,10.4c0,4.12.83,7.31,2.47,9.55a8.44,8.44,0,0,0,13.63-.19Q82.37,52.54,82.37,46.7Z"/><path class="cls-2" d="M43.33,44.08v6.11h-29q.74,10.19,12.22,10.19a22.85,22.85,0,0,0,12.93-3.63V67.22q-6.16,3.48-16,3.49-10.76,0-16.7-6.32T.84,46.79q0-11.7,6.43-18.54A20.76,20.76,0,0,1,23,21.38q9.72,0,15,6.1T43.33,44.08Zm-29-2.8H30.64q0-10.1-7.72-10.09a7.22,7.22,0,0,0-5.71,2.89,13.66,13.66,0,0,0-2.93,7.2Z"/></svg>